<svg width="129" height="28" viewBox="0 0 129 28" fill="none" xmlns="http://www.w3.org/2000/svg">
<path d="M0 11.7235C0 6.03859 4.76796 1.4086 10.4633 1.4086C11.7722 1.38671 13.0723 1.62682 14.2871 2.11482C15.5018 2.60282 16.6067 3.32884 17.5367 4.25017L15.5387 6.23856C14.1782 4.92727 12.3553 4.20555 10.4659 4.23008C6.31799 4.23008 3.0756 7.57027 3.0756 11.727C3.0756 15.8836 6.31275 19.2221 10.4659 19.2221C13.1564 19.2221 14.689 18.141 15.6705 17.1586C16.4757 16.3526 17.0022 15.1929 17.204 13.621H10.4633V10.7917H19.9416C20.049 11.3752 20.0996 11.9677 20.0927 12.5609C20.0927 14.6733 19.5155 17.2887 17.6537 19.1514C15.8391 21.0297 13.5249 22.0261 10.4633 22.0261C4.76796 22.0261 0 17.4083 0 11.7217" fill="white"/>
<path d="M27.7491 19.4186C25.7406 19.4186 24.0046 17.7594 24.0046 15.3937C24.0046 13.0281 25.738 11.3698 27.7491 11.3698C29.7602 11.3698 31.491 13.0045 31.491 15.3972C31.491 17.7899 29.7576 19.4203 27.7491 19.4203V19.4186ZM27.7491 8.75614C24.0814 8.75614 21.0879 11.5506 21.0879 15.3929C21.0879 19.2352 24.0788 22.0252 27.7491 22.0252C31.4194 22.0252 34.4111 19.2072 34.4111 15.3885C34.4111 11.5698 31.4167 8.75439 27.7491 8.75439V8.75614Z" fill="white"/>
<path d="M42.2792 19.4186C40.2708 19.4186 38.5339 17.7594 38.5339 15.3937C38.5339 13.0281 40.2681 11.3698 42.2792 11.3698C44.2903 11.3698 46.0246 13.0045 46.0246 15.3972C46.0246 17.7899 44.2903 19.4238 42.2792 19.4238V19.4186ZM42.2792 8.75963C38.6116 8.75963 35.6172 11.554 35.6172 15.3964C35.6172 19.2387 38.609 22.0287 42.2792 22.0287C45.9495 22.0287 48.9413 19.2107 48.9413 15.392C48.9413 11.5733 45.9495 8.75439 42.2792 8.75439V8.75963Z" fill="white"/>
<path d="M67.8112 2.11426H64.8945V21.6332H67.8112V2.11426Z" fill="white"/>
<path d="M75.5801 11.3209C76.7372 11.3209 77.717 11.8981 78.0427 12.7295L72.1107 15.1938C72.0339 12.6273 74.0965 11.3209 75.5793 11.3209H75.5801ZM75.8055 19.4203C74.3209 19.4203 73.266 18.7409 72.5884 17.4118L81.4641 13.7381L81.1655 12.9897C80.6118 11.5052 78.9291 8.76489 75.4841 8.76489C72.0391 8.76489 69.2246 11.4571 69.2246 15.4016C69.2246 19.1243 72.0409 22.0383 75.8116 22.0383C76.9056 22.044 77.9838 21.7776 78.9493 21.2632C79.9148 20.7487 80.7373 20.0023 81.3427 19.0911L79.0802 17.5821C78.3195 18.6859 77.2891 19.4203 75.8063 19.4203H75.8055Z" fill="white"/>
<path d="M56.7785 19.4202C54.7701 19.4202 53.0829 17.7349 53.0829 15.4216C53.0829 13.1084 54.7674 11.3715 56.7785 11.3715C58.7896 11.3715 60.3135 13.0813 60.3135 15.4216C60.3135 17.7619 58.7608 19.4202 56.7751 19.4202H56.7785ZM60.1144 9.1569V10.2362H60.0139C59.3599 9.45031 58.1033 8.75171 56.5209 8.75171C53.2026 8.75171 50.1602 11.6701 50.1602 15.4181C50.1602 19.1661 53.2017 22.026 56.5209 22.026C58.1041 22.026 59.3608 21.3274 60.0139 20.5171H60.1144V21.4724C60.1144 24.0127 58.7573 25.3706 56.5786 25.3706C54.7936 25.3706 53.6881 24.0878 53.2401 23.0128L50.7007 24.0703C51.1784 25.2385 51.9949 26.2371 53.0449 26.9374C54.0949 27.6377 55.3304 28.0078 56.5925 28C60.0122 28 62.9027 25.9915 62.9027 21.0829V9.1569H60.1144Z" fill="white"/>
<path d="M99.9722 2.08545H90.1289V21.6629H99.9722V2.08545Z" fill="white"/>
<path d="M118.23 21.9728C123.808 21.9728 128.329 17.4512 128.329 11.8736C128.329 6.29597 123.808 1.77441 118.23 1.77441C112.652 1.77441 108.131 6.29597 108.131 11.8736C108.131 17.4512 112.652 21.9728 118.23 21.9728Z" fill="white"/>
<path d="M103.2 23.7473H101.303L106.703 0H108.601L103.2 23.7473Z" fill="white"/>
</svg>
