<svg width="174" height="64" fill="none" xmlns="http://www.w3.org/2000/svg"><g clip-path="url(#a)" fill="#202124"><path d="M20.79 30.724c0-5.685 4.768-10.315 10.463-10.315a9.817 9.817 0 0 1 7.074 2.841l-1.998 1.989a7.175 7.175 0 0 0-5.073-2.009c-4.148 0-7.39 3.34-7.39 7.497s3.237 7.495 7.39 7.495c2.69 0 4.223-1.081 5.205-2.063.805-.806 1.331-1.966 1.533-3.538h-6.74v-2.83h9.478c.107.584.158 1.177.15 1.77 0 2.112-.576 4.728-2.438 6.59-1.815 1.879-4.129 2.875-7.19 2.875-5.696 0-10.464-4.618-10.464-10.304M48.54 38.418c-2.01 0-3.745-1.66-3.745-4.025s1.733-4.024 3.744-4.024 3.742 1.635 3.742 4.028c0 2.392-1.733 4.023-3.742 4.023v-.002Zm0-10.662c-3.668 0-6.662 2.794-6.662 6.636 0 3.843 2.991 6.633 6.661 6.633 3.67 0 6.662-2.818 6.662-6.637 0-3.819-2.994-6.634-6.662-6.634v.002ZM63.07 38.418c-2.009 0-3.746-1.66-3.746-4.025s1.734-4.024 3.745-4.024c2.012 0 3.746 1.635 3.746 4.028 0 2.392-1.734 4.026-3.745 4.026v-.005Zm0-10.659c-3.668 0-6.663 2.795-6.663 6.637 0 3.842 2.992 6.632 6.663 6.632 3.67 0 6.662-2.818 6.662-6.636 0-3.82-2.992-6.638-6.663-6.638v.005ZM88.602 21.114h-2.917v19.52h2.917v-19.52Z"/><path d="M88.602 21.114h-2.917v19.52h2.917v-19.52ZM96.37 30.32c1.157 0 2.137.578 2.463 1.41L92.9 34.192c-.077-2.566 1.986-3.872 3.468-3.872h.001Zm.225 8.1c-1.484 0-2.539-.68-3.217-2.008l8.876-3.674-.298-.749c-.554-1.484-2.237-4.224-5.682-4.224-3.445 0-6.26 2.692-6.26 6.636 0 3.723 2.817 6.637 6.588 6.637a6.6 6.6 0 0 0 5.531-2.947l-2.263-1.51c-.76 1.105-1.79 1.84-3.274 1.84ZM77.57 38.42c-2.01 0-3.696-1.685-3.696-3.998s1.684-4.05 3.695-4.05 3.535 1.71 3.535 4.05-1.553 3.998-3.538 3.998h.003Zm3.335-10.263v1.08h-.1c-.655-.786-1.911-1.485-3.494-1.485-3.318 0-6.36 2.918-6.36 6.666s3.041 6.608 6.36 6.608c1.584 0 2.84-.698 3.493-1.509h.1v.956c0 2.54-1.356 3.898-3.535 3.898-1.785 0-2.89-1.283-3.338-2.358l-2.54 1.058A6.324 6.324 0 0 0 77.383 47c3.42 0 6.31-2.01 6.31-6.918V28.157h-2.788ZM120.763 21.085h-9.844v19.577h9.844V21.085ZM139.02 40.973c5.577 0 10.099-4.522 10.099-10.1 0-5.577-4.522-10.099-10.099-10.099-5.578 0-10.1 4.522-10.1 10.1 0 5.577 4.522 10.099 10.1 10.099ZM123.99 42.747h-1.897l5.4-23.747h1.898l-5.401 23.747Z"/></g><defs><clipPath id="a"><path fill="#fff" transform="translate(20.79 19)" d="M0 0h128.329v28H0z"/></clipPath></defs></svg>