<svg
      width="56"
      height="57"
      viewBox="0 0 56 57"
      fill="none"
      xmlns="http://www.w3.org/2000/svg"
    >
      <path
        d="M49 1H6C3.79086 1 2 2.79086 2 5V53.166C2 54.7826 3.81853 55.7313 5.14436 54.8063L22.405 42.764C23.0679 42.3014 23.9441 42.2835 24.6254 42.7184L43.9239 55.0366C45.2553 55.8863 47 54.9301 47 53.3507V16.5L49 1Z"
        fill="white"
        stroke="#202124"
        stroke-width="1.5"
        stroke-linejoin="round"
      />
      <path
        d="M47 4C47 2.34315 48.3431 1 50 1V1C51.6569 1 53 2.34315 53 4V10V38.865C53 39.7128 52.0111 40.176 51.3598 39.6332L47 36V4Z"
        fill="#202124"
        stroke="#202124"
        stroke-width="1.5"
      />
      <path
        d="M20.4697 33.1517L21 33.682L21.5303 33.1517L34.091 20.591C34.9697 19.7123 34.9697 18.2877 34.091 17.409C33.2123 16.5303 31.7877 16.5303 30.909 17.409L21 27.318L16.591 22.909C15.7123 22.0303 14.2877 22.0303 13.409 22.909L13.9393 23.4393L13.409 22.909C12.5303 23.7877 12.5303 25.2123 13.409 26.091L20.4697 33.1517Z"
        fill="#E3E3E3"
        stroke="#202124"
        stroke-width="1.5"
      />
    </svg>