<svg width="342" height="84" viewBox="0 0 342 84" fill="none" xmlns="http://www.w3.org/2000/svg">
<path d="M270.167 84H9.36725C4.21526 84 0 79.95 0 75C0 70.05 4.21526 66 9.36725 66H270.167C275.319 66 279.534 70.05 279.534 75C279.534 80.025 275.319 84 270.167 84Z" fill="#E3E3E3"/>
<path d="M332.63 62H9.36986C4.21644 62 0 57.95 0 53C0 48.05 4.21644 44 9.36986 44H332.63C337.784 44 342 48.05 342 53C342 57.95 337.784 62 332.63 62Z" fill="#E3E3E3"/>
<path d="M270.167 40H9.36725C4.21526 40 0 35.95 0 31C0 26.05 4.21526 22 9.36725 22H270.167C275.319 22 279.534 26.05 279.534 31C279.534 35.95 275.319 40 270.167 40Z" fill="#E3E3E3"/>
<path d="M304.602 18H9.36517C4.21433 18 0 13.95 0 9C0 4.05 4.21433 0 9.36517 0H304.524C309.675 0 313.889 4.05 313.889 9C313.967 14.025 309.753 18 304.602 18Z" fill="#E3E3E3"/>
</svg>
