<svg width="25" height="25" viewBox="0 0 25 25" fill="none" xmlns="http://www.w3.org/2000/svg">
<mask id="mask0_6664_285059" style="mask-type:alpha" maskUnits="userSpaceOnUse" x="2" y="2" width="21" height="21">
<path fill-rule="evenodd" clip-rule="evenodd" d="M16.3014 21.3374C16.2014 22.0174 15.5814 22.5574 14.8414 22.5574H11.1414C10.4014 22.5574 9.78145 22.0174 9.69145 21.2874L9.42145 19.3974C9.15145 19.2574 8.89145 19.1074 8.63145 18.9374L6.83145 19.6574C6.13145 19.9174 5.36145 19.6274 5.02145 19.0074L3.19145 15.8374C2.84145 15.1774 2.99145 14.3974 3.55145 13.9574L5.08145 12.7674C5.07145 12.6174 5.06145 12.4674 5.06145 12.3074C5.06145 12.1574 5.07145 11.9974 5.08145 11.8474L3.56145 10.6574C2.97145 10.2074 2.82145 9.39738 3.19145 8.77738L5.04145 5.58738C5.38145 4.96738 6.15145 4.68738 6.83145 4.95738L8.64145 5.68738C8.90145 5.51738 9.16145 5.36738 9.42145 5.22738L9.69145 3.31738C9.78145 2.61738 10.4014 2.06738 11.1314 2.06738H14.8314C15.5714 2.06738 16.1914 2.60738 16.2814 3.33738L16.5514 5.22738C16.8214 5.36738 17.0814 5.51738 17.3414 5.68738L19.1414 4.96738C19.8514 4.70738 20.6214 4.99738 20.9614 5.61738L22.8014 8.79738C23.1614 9.45738 23.0014 10.2374 22.4414 10.6774L20.9214 11.8674C20.9314 12.0174 20.9414 12.1674 20.9414 12.3274C20.9414 12.4874 20.9314 12.6374 20.9214 12.7874L22.4414 13.9774C23.0014 14.4274 23.1614 15.2074 22.8114 15.8374L20.9514 19.0574C20.6114 19.6774 19.8414 19.9574 19.1514 19.6874L17.3514 18.9674C17.0914 19.1374 16.8314 19.2874 16.5714 19.4274L16.3014 21.3374ZM11.6114 20.5574H14.3714L14.7414 18.0074L15.2714 17.7874C15.7114 17.6074 16.1514 17.3474 16.6114 17.0074L17.0614 16.6674L19.4414 17.6274L20.8214 15.2274L18.7914 13.6474L18.8614 13.0874L18.8646 13.0605V13.0605C18.8935 12.8101 18.9214 12.5681 18.9214 12.3074C18.9214 12.0374 18.8914 11.7774 18.8614 11.5274L18.7914 10.9674L20.8214 9.38738L19.4314 6.98738L17.0414 7.94738L16.5914 7.59738C16.1714 7.27738 15.7214 7.01738 15.2614 6.82738L14.7414 6.60738L14.3714 4.05738H11.6114L11.2414 6.60738L10.7114 6.81738C10.2714 7.00738 9.83144 7.25738 9.37144 7.60738L8.92144 7.93738L6.54145 6.98738L5.15145 9.37738L7.18145 10.9574L7.11145 11.5174C7.08145 11.7774 7.05145 12.0474 7.05145 12.3074C7.05145 12.5674 7.07144 12.8374 7.11145 13.0874L7.18145 13.6474L5.15145 15.2274L6.53145 17.6274L8.92144 16.6674L9.37144 17.0174C9.80145 17.3474 10.2314 17.5974 10.7014 17.7874L11.2314 18.0074L11.6114 20.5574ZM16.4914 12.3074C16.4914 14.2404 14.9244 15.8074 12.9914 15.8074C11.0584 15.8074 9.49145 14.2404 9.49145 12.3074C9.49145 10.3744 11.0584 8.80738 12.9914 8.80738C14.9244 8.80738 16.4914 10.3744 16.4914 12.3074Z" fill="white"/>
</mask>
<g mask="url(#mask0_6664_285059)">
<rect x="0.992188" y="0.307617" width="24" height="24" fill="#E8EAED"/>
</g>
</svg>
